<mxfile host="app.diagrams.net" agent="Mozilla/5.0 (Macintosh; Intel Mac OS X 10_15_7) AppleWebKit/605.1.15 (KHTML, like Gecko) Version/18.3 Safari/605.1.15" version="26.0.16">
  <diagram name="Page-1" id="-cnpGoVbtNr9EOTQyPRm">
    <mxGraphModel dx="1793" dy="1034" grid="1" gridSize="10" guides="1" tooltips="1" connect="1" arrows="1" fold="1" page="1" pageScale="1" pageWidth="850" pageHeight="1100" math="0" shadow="0">
      <root>
        <mxCell id="0" />
        <mxCell id="1" parent="0" />
        <mxCell id="4hCeyNfptZhe8FhsqhF5-18" value="Sign in" style="edgeStyle=orthogonalEdgeStyle;rounded=0;orthogonalLoop=1;jettySize=auto;html=1;exitX=1;exitY=0.5;exitDx=0;exitDy=0;entryX=0;entryY=0.5;entryDx=0;entryDy=0;" edge="1" parent="1" source="4hCeyNfptZhe8FhsqhF5-2" target="4hCeyNfptZhe8FhsqhF5-17">
          <mxGeometry relative="1" as="geometry" />
        </mxCell>
        <mxCell id="4hCeyNfptZhe8FhsqhF5-2" value="" style="rounded=1;whiteSpace=wrap;html=1;" vertex="1" parent="1">
          <mxGeometry x="180" y="90" width="300" height="590" as="geometry" />
        </mxCell>
        <mxCell id="4hCeyNfptZhe8FhsqhF5-3" value="Epicure Express" style="text;html=1;align=center;verticalAlign=middle;whiteSpace=wrap;rounded=0;" vertex="1" parent="1">
          <mxGeometry x="275" y="150" width="110" height="30" as="geometry" />
        </mxCell>
        <mxCell id="4hCeyNfptZhe8FhsqhF5-4" value="" style="rounded=1;whiteSpace=wrap;html=1;" vertex="1" parent="1">
          <mxGeometry x="255" y="200" width="150" height="170" as="geometry" />
        </mxCell>
        <mxCell id="4hCeyNfptZhe8FhsqhF5-12" value="Logo" style="text;html=1;align=center;verticalAlign=middle;whiteSpace=wrap;rounded=0;" vertex="1" parent="1">
          <mxGeometry x="300" y="270" width="60" height="30" as="geometry" />
        </mxCell>
        <mxCell id="4hCeyNfptZhe8FhsqhF5-13" value="Sign in using ....." style="rounded=0;whiteSpace=wrap;html=1;" vertex="1" parent="1">
          <mxGeometry x="252.5" y="380" width="155" height="20" as="geometry" />
        </mxCell>
        <mxCell id="4hCeyNfptZhe8FhsqhF5-14" value="Sign in using ....." style="rounded=0;whiteSpace=wrap;html=1;" vertex="1" parent="1">
          <mxGeometry x="252.5" y="410" width="155" height="20" as="geometry" />
        </mxCell>
        <mxCell id="4hCeyNfptZhe8FhsqhF5-15" value="Sign in using ....." style="rounded=0;whiteSpace=wrap;html=1;" vertex="1" parent="1">
          <mxGeometry x="252.5" y="440" width="155" height="20" as="geometry" />
        </mxCell>
        <mxCell id="4hCeyNfptZhe8FhsqhF5-16" value="Sign in using ....." style="rounded=0;whiteSpace=wrap;html=1;" vertex="1" parent="1">
          <mxGeometry x="252.5" y="470" width="155" height="20" as="geometry" />
        </mxCell>
        <mxCell id="4hCeyNfptZhe8FhsqhF5-17" value="" style="rounded=1;whiteSpace=wrap;html=1;" vertex="1" parent="1">
          <mxGeometry x="610" y="90" width="300" height="590" as="geometry" />
        </mxCell>
        <mxCell id="4hCeyNfptZhe8FhsqhF5-20" value="" style="endArrow=none;html=1;rounded=0;" edge="1" parent="1" target="4hCeyNfptZhe8FhsqhF5-17">
          <mxGeometry width="50" height="50" relative="1" as="geometry">
            <mxPoint x="610" y="150" as="sourcePoint" />
            <mxPoint x="660" y="100" as="targetPoint" />
            <Array as="points">
              <mxPoint x="910" y="150" />
            </Array>
          </mxGeometry>
        </mxCell>
        <mxCell id="4hCeyNfptZhe8FhsqhF5-21" value="Epicure Express" style="text;html=1;align=center;verticalAlign=middle;whiteSpace=wrap;rounded=0;" vertex="1" parent="1">
          <mxGeometry x="645" y="110" width="230" height="30" as="geometry" />
        </mxCell>
      </root>
    </mxGraphModel>
  </diagram>
</mxfile>
